{"title":"WWE.Superstars.2011.11.17.720p.HD.x264-MM-Snaw90","uid":6827811,"size":1212340357,"categoryP":"video","categoryS":"hd___tv_shows","magnet":"?xt=urn:btih:75f7afb0fa3ffc68ee0074b45bfe4521ac129e21&amp;dn=WWE.Superstars.2011.11.17.720p.HD.x264-MM-Snaw90&amp;tr=udp%3A%2F%2Ftracker.openbittorrent.com%3A80&amp;tr=udp%3A%2F%2Fopen.demonii.com%3A1337&amp;tr=udp%3A%2F%2Ftracker.coppersurfer.tk%3A6969&amp;tr=udp%3A%2F%2Fexodus.desync.com%3A6969","seeders":0,"leechers":0,"uploader":"snaw90","files":1,"time":1321644369,"description":"\nGeneral\n\nComplete name                    : WWE.Superstars.2011.11.17.720p.HD.x264-MM-Snaw90.mp4\nFormat                           : MP4\nFile size                        : 1.13 GiB\nDuration                         : 38mn 51s\n\n\nVideo\n\nFormat                           : AVC\nFormat/Info                      : Advanced Video Codec\nDuration                         : 38mn 51s\nBit rate                         : 4000 Kbps\nWidth                            : 1280 pixels\nHeight                           : 720 pixels\nDisplay aspect ratio             : 16:9\nFrame rate                       : 30.000 fps\nStandard                         : NTSC\nBit depth                        : 8 bits\nStream size                      : 1.09 GiB \nLanguage                         : English\n\n\nAudio\n\nFormat                           : AAC\nFormat profile                   : LC\nDuration                         : 38mn 51s\nBit rate mode                    : Variable\nBit rate                         : 158 Kbps\nMaximum bit rate                 : 355 Kbps\nChannel(s)                       : 2 channels\nStream size                      : 43.8 MiB \nLanguage                         : English\n","torrent":{"xt":"urn:btih:75f7afb0fa3ffc68ee0074b45bfe4521ac129e21","amp;dn":"WWE.Superstars.2011.11.17.720p.HD.x264-MM-Snaw90","amp;tr":["udp%3A%2F%2Ftracker.openbittorrent.com%3A80","udp%3A%2F%2Fopen.demonii.com%3A1337","udp%3A%2F%2Ftracker.coppersurfer.tk%3A6969","udp%3A%2F%2Fexodus.desync.com%3A6969"],"infoHash":"75f7afb0fa3ffc68ee0074b45bfe4521ac129e21","infoHashBuffer":{"type":"Buffer","data":[117,247,175,176,250,63,252,104,238,0,116,180,91,254,69,33,172,18,158,33]},"announce":[],"urlList":[]}}